<svg width="current" height="current" viewBox="0 0 16 16" fill="none" xmlns="http://www.w3.org/2000/svg">
<g clip-path="url(#clip0_328_1774)">
<g clip-path="url(#clip1_328_1774)">
<path fill-rule="evenodd" clip-rule="evenodd" d="M7.9228 4.8333C7.37749 4.83312 7.00539 4.83299 6.68628 4.9185C5.82355 5.14967 5.14968 5.82354 4.91851 6.68627C4.83301 7.00537 4.83313 7.37747 4.83331 7.92278V8.07718C4.83313 8.62249 4.83301 8.99459 4.91851 9.31369C5.14968 10.1764 5.82355 10.8503 6.68628 11.0815C7.00539 11.167 7.37749 11.1668 7.9228 11.1667H8.07719C8.6225 11.1668 8.9946 11.167 9.31371 11.0815C10.1764 10.8503 10.8503 10.1764 11.0815 9.31369C11.167 8.99459 11.1669 8.62249 11.1667 8.07718V7.92278C11.1669 7.37747 11.167 7.00537 11.0815 6.68627C10.8503 5.82354 10.1764 5.14967 9.31371 4.9185C8.9946 4.83299 8.6225 4.83312 8.07719 4.8333H7.9228ZM6.9451 5.88442C7.11982 5.83761 7.34782 5.83331 8 5.83331C8.65217 5.83331 8.88017 5.83761 9.05489 5.88442C9.57253 6.02313 9.97685 6.42745 10.1156 6.94509C10.1624 7.11981 10.1667 7.34781 10.1667 7.99998C10.1667 8.65215 10.1624 8.88015 10.1156 9.05487C9.97685 9.57251 9.57253 9.97683 9.05489 10.1155C8.88017 10.1624 8.65217 10.1666 8 10.1666C7.34782 10.1666 7.11982 10.1624 6.9451 10.1155C6.42746 9.97683 6.02314 9.57251 5.88444 9.05487C5.83762 8.88015 5.83333 8.65215 5.83333 7.99998C5.83333 7.34781 5.83762 7.11981 5.88444 6.94509C6.02314 6.42745 6.42746 6.02313 6.9451 5.88442Z" fill="currentColor"/>
<path fill-rule="evenodd" clip-rule="evenodd" d="M8 0.833313C4.04195 0.833313 0.833328 4.04194 0.833328 7.99998C0.833328 11.958 4.04195 15.1666 8 15.1666C11.958 15.1666 15.1667 11.958 15.1667 7.99998C15.1667 4.04194 11.958 0.833313 8 0.833313ZM1.83333 7.99998C1.83333 4.59422 4.59424 1.83331 8 1.83331C11.4058 1.83331 14.1667 4.59422 14.1667 7.99998C14.1667 11.4057 11.4058 14.1666 8 14.1666C4.59424 14.1666 1.83333 11.4057 1.83333 7.99998Z" fill="currentColor"/>
</g>
</g>
<defs>
<clipPath id="clip0_328_1774">
<rect width="16" height="16" fill="currentColor"/>
</clipPath>
<clipPath id="clip1_328_1774">
<rect width="16" height="16" fill="currentColor"/>
</clipPath>
</defs>
</svg>
