<svg width="current" height="current" viewBox="0 0 24 24" fill="none" xmlns="http://www.w3.org/2000/svg">
<path fill-rule="evenodd" clip-rule="evenodd" d="M18.955 3.23743C19.7769 4.05933 20.0663 5.2112 19.824 6.26593C21.4668 6.42853 22.75 7.8144 22.75 9.49998C22.75 10.4402 22.3508 11.2871 21.7126 11.8806C21.75 12.4749 21.75 13.0253 21.75 14.1147V14.1696C21.75 15.3672 21.75 16.3028 21.7008 17.0576C21.6509 17.8242 21.548 18.4576 21.3169 19.0422C20.739 20.5036 19.6262 21.6756 18.212 22.2893C17.6426 22.5363 17.0269 22.6455 16.2893 22.6982C15.5652 22.75 14.6694 22.75 13.5292 22.75H10.4709C9.33069 22.75 8.43481 22.75 7.71075 22.6982C6.97308 22.6455 6.3574 22.5363 5.78803 22.2893C4.37384 21.6756 3.26097 20.5036 2.68314 19.0422C2.45201 18.4576 2.34909 17.8242 2.29916 17.0576C2.25 16.3027 2.25 15.3673 2.25 14.1696V14.1428C2.25 13.6672 2.24052 13.2839 2.23223 12.9486C2.22181 12.5272 2.21327 12.1815 2.22777 11.8237C1.62445 11.2336 1.25 10.4105 1.25 9.49998C1.25 7.762 2.61421 6.34265 4.33023 6.25434C4.09267 5.20277 4.38303 4.05633 5.20192 3.23744C6.47112 1.96823 8.52891 1.96823 9.79811 3.23744L11.9194 5.35876C11.9748 5.41416 12.0278 5.4711 12.0784 5.52944C12.129 5.47109 12.182 5.41415 12.2374 5.35875L14.3588 3.23743C15.628 1.96822 17.6857 1.96822 18.955 3.23743ZM15.4194 4.29809C16.1028 3.61467 17.2109 3.61467 17.8943 4.29809C18.4218 4.82556 18.5424 5.60702 18.2551 6.24998H13.4675L15.4194 4.29809ZM8.73745 4.2981L10.6893 6.24998H5.90175C5.61448 5.60703 5.7351 4.82557 6.26258 4.2981C6.94599 3.61468 8.05403 3.61468 8.73745 4.2981ZM2.75 9.49998C2.75 8.53348 3.5335 7.74998 4.5 7.74998H11.25V11.25H4.5C3.5335 11.25 2.75 10.4665 2.75 9.49998ZM12.75 21L12.75 12.75H19.5C19.7555 12.75 20.0042 12.7205 20.2427 12.6647C20.2499 13.0336 20.25 13.4827 20.25 14.1428C20.25 15.373 20.2496 16.2597 20.204 16.9602C20.1588 17.6545 20.0714 18.1126 19.9219 18.4907C19.4848 19.5962 18.651 20.4636 17.6149 20.9132C17.2654 21.0649 16.8392 21.1551 16.1823 21.2021C15.518 21.2495 14.6756 21.25 13.5 21.25H12.7073C12.735 21.1718 12.75 21.0876 12.75 21ZM11.25 21L11.25 12.75H4.5C4.23329 12.75 3.97408 12.7179 3.72603 12.6573L3.72973 12.7957C3.73873 13.1281 3.75 13.5443 3.75 14.1428C3.75 15.373 3.75037 16.2597 3.79599 16.9602C3.84121 17.6545 3.92859 18.1126 4.07806 18.4907C4.51518 19.5962 5.34904 20.4636 6.38514 20.9132C6.73463 21.0649 7.1608 21.1551 7.81769 21.2021C8.48204 21.2495 9.3244 21.25 10.5 21.25H11.2927C11.265 21.1718 11.25 21.0876 11.25 21ZM21.25 9.49998C21.25 8.53348 20.4665 7.74998 19.5 7.74998H12.75V11.25H19.5C20.4665 11.25 21.25 10.4665 21.25 9.49998Z" fill="currentColor"/>
</svg>
