<svg width="current" height="current" viewBox="0 0 16 16" fill="none" xmlns="http://www.w3.org/2000/svg">
<g clip-path="url(#clip0_328_516)">
<path d="M5.5 9.33337C5.5 9.05723 5.72386 8.83337 6 8.83337H10C10.2761 8.83337 10.5 9.05723 10.5 9.33337C10.5 9.60952 10.2761 9.83337 10 9.83337H6C5.72386 9.83337 5.5 9.60952 5.5 9.33337Z" fill="currentColor"/>
<path fill-rule="evenodd" clip-rule="evenodd" d="M6 0.833374C6.27614 0.833374 6.5 1.05723 6.5 1.33337V2.17378C6.94616 2.16671 7.44189 2.16671 7.99263 2.16671H8.00737C8.55811 2.16671 9.05384 2.16671 9.5 2.17378V1.33337C9.5 1.05723 9.72386 0.833374 10 0.833374C10.2761 0.833374 10.5 1.05723 10.5 1.33337V2.20909C11.5079 2.27228 12.2823 2.43561 12.9198 2.89881C13.2453 3.13525 13.5315 3.42143 13.7679 3.74686C14.3025 4.48264 14.4376 5.40062 14.4804 6.64959C14.5 7.22106 14.5 7.88598 14.5 8.65936V8.67405C14.5 9.44743 14.5 10.1124 14.4804 10.6838C14.4376 11.9328 14.3025 12.8508 13.7679 13.5866C13.5315 13.912 13.2453 14.1982 12.9198 14.4346C12.1841 14.9692 11.2661 15.1043 10.0171 15.1471C9.44561 15.1667 8.78064 15.1667 8.00719 15.1667H7.96982C6.74547 15.1667 5.78574 15.1667 5.02432 15.0842C4.24729 15 3.61771 14.8252 3.08016 14.4346C2.75473 14.1982 2.46854 13.912 2.2321 13.5866C1.84155 13.049 1.66667 12.4194 1.58249 11.6424C1.49999 10.881 1.49999 9.92123 1.5 8.69687L1.5 8.65933C1.5 7.88596 1.5 7.22105 1.51958 6.64959C1.56237 5.40062 1.69753 4.48264 2.2321 3.74686C2.46854 3.42143 2.75473 3.13525 3.08016 2.89881C3.7177 2.43561 4.49206 2.27228 5.5 2.20909V1.33337C5.5 1.05723 5.72386 0.833374 6 0.833374ZM5.5 3.21154C4.59197 3.27399 4.06785 3.41728 3.66794 3.70783C3.42741 3.88259 3.21588 4.09411 3.04112 4.33465C2.75057 4.73456 2.60728 5.25867 2.54483 6.16671H13.4552C13.3927 5.25867 13.2494 4.73456 12.9589 4.33465C12.7841 4.09411 12.5726 3.88259 12.3321 3.70783C11.9321 3.41728 11.408 3.27399 10.5 3.21154V3.33337C10.5 3.60952 10.2761 3.83337 10 3.83337C9.72386 3.83337 9.5 3.60952 9.5 3.33337V3.1739C9.06028 3.16674 8.56504 3.16671 8 3.16671C7.43496 3.16671 6.93972 3.16674 6.5 3.1739V3.33337C6.5 3.60952 6.27614 3.83337 6 3.83337C5.72386 3.83337 5.5 3.60952 5.5 3.33337V3.21154ZM13.4928 7.16671H2.50719C2.50003 7.60643 2.5 8.10166 2.5 8.66671C2.5 9.92776 2.50069 10.8334 2.57667 11.5347C2.65163 12.2266 2.79506 12.6601 3.04112 12.9988C3.21588 13.2393 3.42741 13.4508 3.66794 13.6256C4.00661 13.8716 4.44009 14.0151 5.13203 14.09C5.83333 14.166 6.73895 14.1667 8 14.1667C8.56557 14.1667 9.06119 14.1667 9.50122 14.1595C9.50413 13.8431 9.51398 13.6101 9.5472 13.4004C9.80699 11.7601 11.0934 10.4737 12.7337 10.2139C12.9434 10.1807 13.1764 10.1708 13.4928 10.1679C13.5 9.7279 13.5 9.23227 13.5 8.66671C13.5 8.10166 13.5 7.60643 13.4928 7.16671ZM13.455 11.1686C13.1851 11.1717 13.0268 11.1799 12.8901 11.2016C11.6777 11.3936 10.7269 12.3444 10.5349 13.5568C10.5132 13.6935 10.505 13.8518 10.5019 14.1217C11.4088 14.0592 11.9324 13.9159 12.3321 13.6256C12.5726 13.4508 12.7841 13.2393 12.9589 12.9988C13.2492 12.5991 13.3925 12.0755 13.455 11.1686Z" fill="currentColor"/>
</g>
<defs>
<clipPath id="clip0_328_516">
<rect width="16" height="16" fill="white"/>
</clipPath>
</defs>
</svg>
