<svg width="current" height="current" viewBox="0 0 16 16" fill="none" xmlns="http://www.w3.org/2000/svg">
<g clip-path="url(#clip0_328_530)">
<path fill-rule="evenodd" clip-rule="evenodd" d="M13.8979 2.62371C13.0129 1.72116 12.0276 1.44194 11.1023 1.50967C10.2021 1.57558 9.39135 1.96609 8.79921 2.34171C8.33225 2.63793 7.66758 2.63793 7.20061 2.34171C6.60847 1.9661 5.79774 1.57559 4.8975 1.50969C3.97224 1.44195 2.98698 1.72116 2.10194 2.62371C1.05709 3.68924 0.729279 5.00459 0.860915 6.3351C0.991033 7.65028 1.56792 8.98723 2.33733 10.1719C3.10879 11.3597 4.09425 12.4261 5.08289 13.2005C6.04979 13.9578 7.10182 14.5 7.99994 14.5C8.89806 14.5 9.95008 13.9578 10.917 13.2005C11.9056 12.4261 12.8911 11.3597 13.6625 10.1719C14.4319 8.98723 15.0088 7.65028 15.1389 6.3351C15.2706 5.00459 14.9428 3.68924 13.8979 2.62371ZM9.33487 3.18615C9.85851 2.85398 10.5066 2.55596 11.1753 2.50701C11.819 2.45988 12.5128 2.63949 13.1839 3.32386C13.9861 4.14188 14.2516 5.14658 14.1438 6.23665C14.0344 7.34205 13.539 8.5262 12.8239 9.6272C12.1109 10.725 11.1997 11.7088 10.3003 12.4133C9.37924 13.1347 8.55186 13.5 7.99994 13.5C7.44801 13.5 6.62063 13.1347 5.69952 12.4133C4.80015 11.7088 3.889 10.725 3.17597 9.6272C2.46089 8.5262 1.96542 7.34205 1.85606 6.23665C1.74821 5.14658 2.01379 4.14189 2.81594 3.32386C3.48703 2.6395 4.18081 2.4599 4.82449 2.50702C5.4932 2.55597 6.14132 2.85399 6.66496 3.18615C7.45891 3.68978 8.54092 3.68978 9.33487 3.18615Z" fill="currentColor"/>
</g>
<defs>
<clipPath id="clip0_328_530">
<rect width="16" height="16" fill="white"/>
</clipPath>
</defs>
</svg>
