<svg width="current" height="current" viewBox="0 0 16 16" fill="none" xmlns="http://www.w3.org/2000/svg">
<g clip-path="url(#clip0_328_524)">
<path d="M3.97901 1.22383C4.19464 1.05132 4.2296 0.736676 4.0571 0.521045C3.88459 0.305414 3.56995 0.270453 3.35431 0.442958L1.68765 1.77629C1.47202 1.9488 1.43706 2.26344 1.60956 2.47907C1.78207 2.6947 2.09671 2.72966 2.31234 2.55716L3.97901 1.22383Z" fill="currentColor"/>
<path d="M12.6457 0.442958C12.43 0.270453 12.1154 0.305414 11.9429 0.521045C11.7704 0.736676 11.8054 1.05132 12.021 1.22383L13.6876 2.55716C13.9033 2.72966 14.2179 2.6947 14.3904 2.47907C14.5629 2.26344 14.528 1.9488 14.3123 1.77629L12.6457 0.442958Z" fill="currentColor"/>
<path d="M8.5 5.50006C8.5 5.22392 8.27614 5.00006 8 5.00006C7.72386 5.00006 7.5 5.22392 7.5 5.50006V8.30395C7.5 8.51648 7.4188 8.72098 7.273 8.87562L6.30286 9.90461C6.11343 10.1055 6.12274 10.422 6.32366 10.6114C6.52459 10.8008 6.84103 10.7915 7.03047 10.5906L8.00061 9.56161C8.32135 9.22141 8.5 8.77152 8.5 8.30395V5.50006Z" fill="currentColor"/>
<path fill-rule="evenodd" clip-rule="evenodd" d="M8 1.00006C4.04195 1.00006 0.833328 4.20868 0.833328 8.16672C0.833328 12.1248 4.04195 15.3334 8 15.3334C11.958 15.3334 15.1667 12.1248 15.1667 8.16672C15.1667 4.20868 11.958 1.00006 8 1.00006ZM1.83333 8.16672C1.83333 4.76097 4.59424 2.00006 8 2.00006C11.4058 2.00006 14.1667 4.76097 14.1667 8.16672C14.1667 11.5725 11.4058 14.3334 8 14.3334C4.59424 14.3334 1.83333 11.5725 1.83333 8.16672Z" fill="currentColor"/>
</g>
<defs>
<clipPath id="clip0_328_524">
<rect width="16" height="16" fill="white"/>
</clipPath>
</defs>
</svg>
