<svg width="current" height="current" viewBox="0 0 24 24" fill="none" xmlns="http://www.w3.org/2000/svg">
<path fill-rule="evenodd" clip-rule="evenodd" d="M9.9109 4.31377C7.42561 4.26882 4.99121 5.42351 3.46816 7.54892C3.24619 7.85867 3.02623 8.23969 2.64561 8.89897L2.61852 8.9459C2.61453 8.95281 2.61051 8.95975 2.60648 8.96672C2.56095 9.04545 2.51367 9.1272 2.47756 9.20691C2.13299 9.96737 2.3736 10.8653 3.05223 11.3516C3.12337 11.4026 3.20518 11.4498 3.28398 11.4952C3.29096 11.4992 3.29791 11.5032 3.30482 11.5072L9.47525 15.0697L5.85025 21.3484C5.64314 21.7071 5.76605 22.1658 6.12477 22.3729C6.48349 22.58 6.94218 22.4571 7.14929 22.0984L10.7743 15.8197L16.9447 19.3822C16.9516 19.3862 16.9586 19.3902 16.9656 19.3942C17.0443 19.4398 17.126 19.487 17.2057 19.5232C17.9662 19.8677 18.8642 19.6271 19.3505 18.9485C19.4014 18.8773 19.4486 18.7955 19.494 18.7167C19.498 18.7097 19.502 18.7028 19.506 18.6959L19.5331 18.649C19.9138 17.9897 20.1337 17.6087 20.291 17.2616C21.3704 14.8794 21.1529 12.1932 19.8706 10.0631L19.9787 9.87584C21.5665 7.12565 20.6242 3.60901 17.874 2.02119C15.1239 0.433374 11.6072 1.37565 10.0194 4.12584L9.9109 4.31377ZM11.5481 4.51969C12.0283 4.63325 12.5032 4.79413 12.9662 5.00393C13.3133 5.1612 13.6943 5.38119 14.3536 5.76184L16.396 6.94103C17.0553 7.32164 17.4363 7.5416 17.746 7.76356C18.1588 8.05937 18.5352 8.3898 18.8734 8.7485C19.7635 6.78171 19.033 4.42234 17.124 3.32023C15.215 2.21805 12.8063 2.76525 11.5481 4.51969ZM10.2714 5.83263C8.13397 5.66036 5.99426 6.59896 4.68743 8.42264C4.51399 8.66467 4.33278 8.97671 3.91756 9.6959C3.88727 9.74836 3.86926 9.7796 3.85606 9.80341C3.84766 9.81855 3.84343 9.82691 3.84343 9.82691C3.79497 9.93503 3.82908 10.0624 3.92512 10.1318C3.92512 10.1318 3.93296 10.1369 3.9478 10.1458C3.97114 10.1598 4.00236 10.1779 4.05482 10.2082L10.8748 14.1457L17.6947 18.0832C17.7472 18.1134 17.7784 18.1315 17.8022 18.1447C17.8164 18.1525 17.8232 18.156 17.8254 18.1571C17.934 18.2063 18.0617 18.1717 18.1312 18.0748C18.1287 18.0783 18.1313 18.0751 18.1446 18.0529C18.1586 18.0296 18.1767 17.9984 18.207 17.9459C18.6222 17.2267 18.8018 16.9138 18.9247 16.6425C19.8522 14.5955 19.5928 12.2687 18.3696 10.5027C17.9708 9.92697 17.4693 9.41065 16.8723 8.98283C16.6303 8.8094 16.3182 8.62818 15.599 8.21296L13.6505 7.08796C12.9313 6.67275 12.6184 6.49311 12.3471 6.37022C11.6747 6.06553 10.973 5.88918 10.2714 5.83263Z" fill="currentColor"/>
</svg>
