<svg width="current" height="current" viewBox="0 0 24 24" fill="none" xmlns="http://www.w3.org/2000/svg">
<path fill-rule="evenodd" clip-rule="evenodd" d="M17.7312 1.49099C16.5355 0.995731 15.3748 1.30485 14.5492 2.0344C13.7428 2.74702 13.25 3.85544 13.25 5.03309V5.99882C13.25 8.89832 15.6005 11.2488 18.5 11.2488H19.4657C20.6434 11.2488 21.7518 10.7561 22.4644 9.94963C23.194 9.12403 23.5031 7.96333 23.0078 6.76766C22.5178 5.58473 21.7997 4.5099 20.8943 3.60453C19.9889 2.69916 18.9141 1.98098 17.7312 1.49099ZM14.75 5.03309C14.75 4.25881 15.0777 3.56916 15.5425 3.15842C15.9881 2.76462 16.5495 2.62511 17.1571 2.87681C18.1581 3.29141 19.0676 3.89911 19.8336 4.66519C20.5997 5.43127 21.2074 6.34075 21.622 7.34168C21.8737 7.94935 21.7342 8.51073 21.3404 8.95637C20.9297 9.42117 20.24 9.74882 19.4657 9.74882H18.5C16.4289 9.74882 14.75 8.06989 14.75 5.99882V5.03309Z" fill="currentColor"/>
<path fill-rule="evenodd" clip-rule="evenodd" d="M11.75 6.49882C11.75 5.03947 10.5133 3.61298 8.85109 3.98858C7.69088 4.25074 6.58234 4.72438 5.58319 5.39199C3.97982 6.46334 2.73013 7.98608 1.99218 9.76766C1.25422 11.5492 1.06114 13.5096 1.43735 15.401C1.81355 17.2923 2.74215 19.0296 4.10571 20.3931C5.46928 21.7567 7.20656 22.6853 9.09787 23.0615C10.9892 23.4377 12.9496 23.2446 14.7312 22.5066C16.5127 21.7687 18.0355 20.519 19.1068 18.9156C19.7744 17.9165 20.2481 16.8079 20.5102 15.6477C20.8858 13.9855 19.4594 12.7488 18 12.7488H16C13.6528 12.7488 11.75 10.846 11.75 8.49882V6.49882ZM9.1817 5.45169C9.67431 5.34038 10.25 5.74904 10.25 6.49882V8.49882C10.25 11.6745 12.8244 14.2488 16 14.2488H18C18.7498 14.2488 19.1584 14.8245 19.0471 15.3171C18.8253 16.2989 18.4245 17.2368 17.8596 18.0823C16.9531 19.439 15.6646 20.4964 14.1571 21.1208C12.6497 21.7452 10.9909 21.9086 9.39051 21.5903C7.79017 21.272 6.32016 20.4862 5.16637 19.3325C4.01259 18.1787 3.22685 16.7087 2.90853 15.1083C2.5902 13.508 2.75358 11.8492 3.378 10.3417C4.00242 8.83419 5.05984 7.54572 6.41655 6.6392C7.26198 6.0743 8.19996 5.67353 9.1817 5.45169Z" fill="currentColor"/>
</svg>
