<svg width="current" height="current" viewBox="0 0 24 24" fill="none" xmlns="http://www.w3.org/2000/svg">
<path d="M14.7082 3.05518C15.3228 2.74964 16.0452 2.65873 16.7601 2.85032C18.3161 3.26723 19.2395 4.86655 18.8225 6.42249L16.45 15.2768C16.0331 16.8328 14.4338 17.7561 12.8779 17.3392C11.3219 16.9223 10.3986 15.323 10.8155 13.767L11.7645 10.2253C11.8717 9.8252 11.6342 9.41395 11.2341 9.30674C10.834 9.19954 10.4228 9.43698 10.3156 9.83708L9.36658 13.3788C8.73525 15.7349 10.1335 18.1568 12.4896 18.7881C14.8458 19.4194 17.2676 18.0212 17.8989 15.665L20.2714 6.81072C20.9028 4.45458 19.5045 2.03275 17.1484 1.40143C16.0669 1.11165 14.9698 1.24999 14.0405 1.71198C13.4706 1.99527 12.9626 2.4007 12.558 2.90504C12.2989 3.22815 12.3507 3.70019 12.6738 3.95936C12.9969 4.21853 13.469 4.1667 13.7281 3.84358C13.9947 3.51125 14.3305 3.24292 14.7082 3.05518Z" fill="currentColor"/>
<path d="M8.22274 9.2763C8.63966 7.72036 10.239 6.79699 11.7949 7.21391C13.3509 7.63082 14.2742 9.23013 13.8573 10.7861L12.9083 14.3278C12.8011 14.7279 13.0385 15.1392 13.4386 15.2464C13.8387 15.3536 14.25 15.1161 14.3572 14.716L15.3062 11.1743C15.9375 8.81816 14.5393 6.39634 12.1831 5.76502C9.827 5.13369 7.40518 6.53193 6.77385 8.88807L4.40135 17.7424C3.77002 20.0985 5.16826 22.5204 7.5244 23.1517C8.60586 23.4415 9.70295 23.3031 10.6323 22.8411C11.2022 22.5578 11.7102 22.1524 12.1147 21.6481C12.3739 21.325 12.3221 20.8529 11.999 20.5937C11.6759 20.3346 11.2038 20.3864 10.9446 20.7095C10.6781 21.0419 10.3423 21.3102 9.96461 21.4979C9.34997 21.8035 8.62762 21.8944 7.91263 21.7028C6.35669 21.2859 5.43332 19.6866 5.85023 18.1306L8.22274 9.2763Z" fill="currentColor"/>
</svg>
