<svg width="89" height="100" viewBox="0 0 89 100" fill="none" xmlns="http://www.w3.org/2000/svg">
<path d="M88.3624 0L80.3295 89.9895L44.221 100L8.21195 90.0036L0.1875 0H88.3624Z" fill="white"/>
<path d="M73.4528 84.2596L80.3175 7.35938H44.2754V92.3487L73.4528 84.2596Z" fill="white"/>
<path d="M18.584 40.7402L19.5733 51.7787H44.2756V40.7402H18.584Z" fill="black"/>
<path d="M44.2752 18.3975H44.2371H16.5957L17.5992 29.4362H44.2752V18.3975Z" fill="black"/>
<path d="M44.2754 80.8931V69.4083L44.227 69.4212L31.9333 66.1016L31.1474 57.2979H25.1736H20.0664L21.6129 74.63L44.2246 80.9072L44.2754 80.8931Z" fill="black"/>
<path d="M57.8291 51.7783L56.5478 66.0945L44.2363 69.4174V80.9017L66.866 74.6299L67.032 72.7649L69.626 43.704L69.8953 40.7398L71.8881 18.3975H44.2363V29.4362H59.7908L58.7864 40.7398H44.2363V51.7783H57.8291Z" fill="black"/>
</svg>
