<svg width="101" height="100" viewBox="0 0 101 100" fill="none" xmlns="http://www.w3.org/2000/svg">
<path d="M100.361 0H0.361328V100H100.361V0Z" fill="white"/>
<path d="M67.5359 78.1249C69.5501 81.4138 72.1708 83.8313 76.8057 83.8313C80.6993 83.8313 83.1866 81.8853 83.1866 79.1964C83.1866 75.9741 80.6311 74.8329 76.3454 72.9583L73.9962 71.9503C67.2152 69.0614 62.7105 65.4424 62.7105 57.7916C62.7105 50.744 68.0803 45.3789 76.4724 45.3789C82.447 45.3789 86.7422 47.4583 89.8374 52.9027L82.52 57.6011C80.9089 54.7122 79.1708 53.5741 76.4724 53.5741C73.72 53.5741 71.9755 55.3202 71.9755 57.6011C71.9755 60.4202 73.7216 61.5614 77.7533 63.3075L80.1025 64.3138C88.0866 67.7376 92.5946 71.2281 92.5946 79.0757C92.5946 87.536 85.9486 92.171 77.0232 92.171C68.2962 92.171 62.6581 88.0122 59.8993 82.5614L67.5359 78.1249ZM34.3406 78.9392C35.8168 81.5583 37.1597 83.7726 40.3882 83.7726C43.4755 83.7726 45.4232 82.5646 45.4232 77.8678V45.9154H54.82V77.9948C54.82 87.7249 49.1152 92.1535 40.7882 92.1535C33.2644 92.1535 28.9073 88.2599 26.6914 83.5702L34.3406 78.9392Z" fill="black"/>
</svg>
