<svg width="101" height="100" viewBox="0 0 101 100" fill="none" xmlns="http://www.w3.org/2000/svg">
<path d="M0.361328 0H100.361V100H0.361328V0Z" fill="white"/>
<path d="M48.377 37.0312H53.1739V45.3125H40.2051V82.1562L39.8614 82.25C39.3926 82.375 33.2207 82.375 31.8926 82.2344L30.8301 82.1406V45.3125H17.8613V37.0312L21.9707 36.9844C24.2207 36.9531 30.002 36.9531 34.8145 36.9844C39.627 37.0156 45.7207 37.0312 48.377 37.0312ZM84.9864 78.25C83.0802 80.2656 81.0333 81.3906 77.6271 82.3125C76.1427 82.7187 75.8927 82.7344 72.5489 82.7188C69.2052 82.7031 68.9395 82.7031 67.3145 82.2812C63.1114 81.2031 59.7208 79.0937 57.4083 76.1094C56.752 75.2656 55.6739 73.5156 55.6739 73.2969C55.6739 73.2344 55.8301 73.0937 56.0333 73C56.2364 72.9062 56.6583 72.6406 57.002 72.4375C57.3458 72.2344 57.9708 71.8594 58.3926 71.6406C58.8145 71.4219 60.0333 70.7031 61.0958 70.0625C62.1583 69.4219 63.127 68.9062 63.2364 68.9062C63.3458 68.9062 63.5489 69.125 63.7052 69.3906C64.6427 70.9687 66.8302 72.9844 68.377 73.6719C69.3302 74.0781 71.4395 74.5312 72.4552 74.5312C73.3927 74.5312 75.1114 74.125 76.0333 73.7031C77.0177 73.25 77.5177 72.7969 78.1114 71.8906C78.5177 71.25 78.5646 71.0781 78.5489 69.8594C78.5489 68.7344 78.4864 68.4219 78.1739 67.9062C77.2989 66.4687 76.1114 65.7187 71.2989 63.5937C66.3302 61.3906 64.0958 60.0781 62.2833 58.3125C60.9395 57 60.6739 56.6406 59.8302 55C58.7364 52.8906 58.5958 52.2031 58.5802 49.0625C58.5645 46.8594 58.6114 46.1406 58.8458 45.3906C59.1739 44.2656 60.2364 42.0937 60.7208 41.5469C61.7208 40.375 62.0802 40.0156 62.7833 39.4375C64.9083 37.6875 68.2208 36.5312 71.3927 36.4219C71.752 36.4219 72.9395 36.4844 74.0489 36.5625C77.2364 36.8281 79.4083 37.6094 81.5021 39.2812C83.0802 40.5312 85.4708 43.4688 85.2364 43.8594C85.0802 44.0938 78.8458 48.25 78.4396 48.375C78.1896 48.4531 78.0177 48.3594 77.6739 47.9531C75.5489 45.4062 74.6896 44.8594 72.627 44.7344C71.1583 44.6406 70.377 44.8125 69.3927 45.4687C68.3614 46.1562 67.8614 47.2031 67.8614 48.6562C67.877 50.7812 68.6895 51.7812 71.6895 53.2656C73.627 54.2187 75.2833 55 75.4083 55C75.5958 55 79.6114 57 80.6583 57.625C85.5333 60.4844 87.5177 63.4219 88.0333 68.4844C88.4083 72.2969 87.3302 75.7812 84.9864 78.25Z" fill="black"/>
</svg>
