<svg width="101" height="100" viewBox="0 0 101 100" fill="none" xmlns="http://www.w3.org/2000/svg">
<path d="M50.6678 58.8161C55.5369 58.8161 59.484 54.8689 59.484 49.9998C59.484 45.1308 55.5369 41.1836 50.6678 41.1836C45.7987 41.1836 41.8516 45.1308 41.8516 49.9998C41.8516 54.8689 45.7987 58.8161 50.6678 58.8161Z" fill="white"/>
<path d="M50.6679 68.0626C76.7947 68.0626 97.9746 59.9757 97.9746 50C97.9746 40.0244 76.7947 31.9375 50.6679 31.9375C24.5412 31.9375 3.36133 40.0244 3.36133 50C3.36133 59.9757 24.5412 68.0626 50.6679 68.0626Z" stroke="white" stroke-width="5"/>
<path d="M35.0243 59.0313C48.0877 81.6577 65.6811 95.9566 74.3203 90.9687C82.9594 85.9809 79.3729 63.5951 66.3096 40.9687C53.2462 18.3423 35.6528 4.04343 27.0136 9.03126C18.3745 14.0191 21.961 36.4049 35.0243 59.0313Z" stroke="white" stroke-width="5"/>
<path d="M35.0244 40.9687C21.961 63.5951 18.3745 85.9809 27.0137 90.9687C35.6528 95.9565 53.2462 81.6576 66.3096 59.0312C79.3729 36.4048 82.9595 14.0191 74.3203 9.03124C65.6811 4.04341 48.0877 18.3423 35.0244 40.9687Z" stroke="white" stroke-width="5"/>
</svg>
