<svg width="1780" height="323" viewBox="0 0 1780 323" fill="none" xmlns="http://www.w3.org/2000/svg">
<mask id="path-1-outside-1_1052_2192" maskUnits="userSpaceOnUse" x="-0.564453" y="-0.00292969" width="1781" height="323" fill="black">
<rect fill="white" x="-0.564453" y="-0.00292969" width="1781" height="323"/>
<path d="M177.955 103C177.141 92.82 173.324 84.8797 166.503 79.1789C159.784 73.4781 149.553 70.6277 135.811 70.6277C127.056 70.6277 119.879 71.6966 114.28 73.8344C108.783 75.8704 104.711 78.6699 102.064 82.2329C99.4173 85.7958 98.043 89.8678 97.9412 94.4488C97.7376 98.2153 98.3993 101.626 99.9263 104.68C101.555 107.632 104.1 110.329 107.561 112.773C111.022 115.114 115.451 117.252 120.846 119.186C126.241 121.12 132.655 122.851 140.086 124.378L165.74 129.875C183.045 133.54 197.857 138.375 210.175 144.381C222.493 150.387 232.571 157.463 240.409 165.606C248.248 173.649 253.999 182.709 257.664 192.787C261.431 202.865 263.365 213.859 263.467 225.77C263.365 246.333 258.224 263.741 248.044 277.993C237.864 292.245 223.307 303.086 204.372 310.518C185.539 317.949 162.889 321.665 136.421 321.665C109.241 321.665 85.5217 317.644 65.2637 309.601C45.1074 301.559 29.4303 289.191 18.2324 272.496C7.1363 255.699 1.53735 234.219 1.43555 208.057H82.0605C82.5695 217.626 84.9618 225.668 89.2374 232.183C93.513 238.698 99.5191 243.636 107.256 246.995C115.094 250.354 124.409 252.034 135.2 252.034C144.26 252.034 151.844 250.914 157.952 248.675C164.06 246.435 168.692 243.33 171.847 239.36C175.003 235.39 176.632 230.86 176.734 225.77C176.632 220.985 175.054 216.811 172 213.248C169.048 209.584 164.162 206.326 157.341 203.476C150.521 200.524 141.308 197.775 129.703 195.23L98.552 188.511C70.8626 182.505 49.0267 172.478 33.0442 158.43C17.1635 144.28 9.27409 124.989 9.37589 100.557C9.27409 80.7059 14.5676 63.3491 25.2566 48.4864C36.0473 33.5219 50.9609 21.8659 69.9973 13.5184C89.1356 5.17084 111.073 0.99707 135.811 0.99707C161.057 0.99707 182.893 5.22174 201.318 13.6711C219.744 22.1204 233.945 34.0309 243.921 49.4026C253.999 64.6725 259.089 82.5383 259.191 103H177.955ZM363.463 5.27264V318H278.563V5.27264H363.463ZM386.499 318V5.27264H471.4V249.591H597.835V318H386.499ZM663.932 5.27264L728.065 225.77H730.508L794.642 5.27264H890.537L787.312 318H671.261L568.037 5.27264H663.932ZM903.457 318V5.27264H1128.84V73.6817H988.357V127.432H1117.24V195.841H988.357V249.591H1128.23V318H903.457ZM1153.75 318V5.27264H1288.73C1311.94 5.27264 1332.25 9.49731 1349.66 17.9466C1367.07 26.396 1380.61 38.561 1390.28 54.4417C1399.95 70.3224 1404.78 89.3588 1404.78 111.551C1404.78 133.947 1399.8 152.831 1389.82 168.202C1379.94 183.574 1366.05 195.179 1348.13 203.018C1330.32 210.856 1309.5 214.775 1285.68 214.775H1205.05V148.81H1268.58C1278.55 148.81 1287.05 147.588 1294.08 145.145C1301.2 142.6 1306.65 138.579 1310.42 133.082C1314.28 127.584 1316.22 120.408 1316.22 111.551C1316.22 102.593 1314.28 95.3141 1310.42 89.7151C1306.65 84.0144 1301.2 79.8406 1294.08 77.1938C1287.05 74.4452 1278.55 73.0709 1268.58 73.0709H1238.65V318H1153.75ZM1336.99 174.463L1415.17 318H1322.94L1246.59 174.463H1336.99ZM1423.77 318V5.27264H1559.37C1583.19 5.27264 1603.19 8.47932 1619.38 14.8927C1635.67 21.306 1647.94 30.3662 1656.18 42.0731C1664.53 53.78 1668.7 67.5738 1668.7 83.4545C1668.7 94.9578 1666.16 105.443 1661.07 114.91C1656.08 124.378 1649.06 132.318 1640 138.731C1630.93 145.043 1620.35 149.42 1608.23 151.864V154.918C1621.67 155.427 1633.89 158.837 1644.88 165.148C1655.88 171.358 1664.63 179.96 1671.15 190.954C1677.66 201.847 1680.92 214.674 1680.92 229.435C1680.92 246.537 1676.44 261.756 1667.48 275.092C1658.62 288.427 1646 298.913 1629.61 306.548C1613.22 314.182 1593.68 318 1570.98 318H1423.77ZM1508.67 250.202H1548.38C1562.63 250.202 1573.32 247.555 1580.44 242.261C1587.57 236.866 1591.13 228.926 1591.13 218.44C1591.13 211.111 1589.45 204.901 1586.09 199.811C1582.73 194.721 1577.95 190.853 1571.74 188.206C1565.63 185.559 1558.25 184.236 1549.6 184.236H1508.67V250.202ZM1508.67 131.707H1543.49C1550.92 131.707 1557.49 130.537 1563.19 128.195C1568.89 125.854 1573.32 122.494 1576.47 118.117C1579.73 113.638 1581.36 108.192 1581.36 101.778C1581.36 92.1074 1577.9 84.7269 1570.98 79.637C1564.05 74.4452 1555.3 71.8493 1544.71 71.8493H1508.67V131.707ZM1778.7 5.27264V318H1693.8V5.27264H1778.7Z"/>
</mask>
<path d="M177.955 103C177.141 92.82 173.324 84.8797 166.503 79.1789C159.784 73.4781 149.553 70.6277 135.811 70.6277C127.056 70.6277 119.879 71.6966 114.28 73.8344C108.783 75.8704 104.711 78.6699 102.064 82.2329C99.4173 85.7958 98.043 89.8678 97.9412 94.4488C97.7376 98.2153 98.3993 101.626 99.9263 104.68C101.555 107.632 104.1 110.329 107.561 112.773C111.022 115.114 115.451 117.252 120.846 119.186C126.241 121.12 132.655 122.851 140.086 124.378L165.74 129.875C183.045 133.54 197.857 138.375 210.175 144.381C222.493 150.387 232.571 157.463 240.409 165.606C248.248 173.649 253.999 182.709 257.664 192.787C261.431 202.865 263.365 213.859 263.467 225.77C263.365 246.333 258.224 263.741 248.044 277.993C237.864 292.245 223.307 303.086 204.372 310.518C185.539 317.949 162.889 321.665 136.421 321.665C109.241 321.665 85.5217 317.644 65.2637 309.601C45.1074 301.559 29.4303 289.191 18.2324 272.496C7.1363 255.699 1.53735 234.219 1.43555 208.057H82.0605C82.5695 217.626 84.9618 225.668 89.2374 232.183C93.513 238.698 99.5191 243.636 107.256 246.995C115.094 250.354 124.409 252.034 135.2 252.034C144.26 252.034 151.844 250.914 157.952 248.675C164.06 246.435 168.692 243.33 171.847 239.36C175.003 235.39 176.632 230.86 176.734 225.77C176.632 220.985 175.054 216.811 172 213.248C169.048 209.584 164.162 206.326 157.341 203.476C150.521 200.524 141.308 197.775 129.703 195.23L98.552 188.511C70.8626 182.505 49.0267 172.478 33.0442 158.43C17.1635 144.28 9.27409 124.989 9.37589 100.557C9.27409 80.7059 14.5676 63.3491 25.2566 48.4864C36.0473 33.5219 50.9609 21.8659 69.9973 13.5184C89.1356 5.17084 111.073 0.99707 135.811 0.99707C161.057 0.99707 182.893 5.22174 201.318 13.6711C219.744 22.1204 233.945 34.0309 243.921 49.4026C253.999 64.6725 259.089 82.5383 259.191 103H177.955ZM363.463 5.27264V318H278.563V5.27264H363.463ZM386.499 318V5.27264H471.4V249.591H597.835V318H386.499ZM663.932 5.27264L728.065 225.77H730.508L794.642 5.27264H890.537L787.312 318H671.261L568.037 5.27264H663.932ZM903.457 318V5.27264H1128.84V73.6817H988.357V127.432H1117.24V195.841H988.357V249.591H1128.23V318H903.457ZM1153.75 318V5.27264H1288.73C1311.94 5.27264 1332.25 9.49731 1349.66 17.9466C1367.07 26.396 1380.61 38.561 1390.28 54.4417C1399.95 70.3224 1404.78 89.3588 1404.78 111.551C1404.78 133.947 1399.8 152.831 1389.82 168.202C1379.94 183.574 1366.05 195.179 1348.13 203.018C1330.32 210.856 1309.5 214.775 1285.68 214.775H1205.05V148.81H1268.58C1278.55 148.81 1287.05 147.588 1294.08 145.145C1301.2 142.6 1306.65 138.579 1310.42 133.082C1314.28 127.584 1316.22 120.408 1316.22 111.551C1316.22 102.593 1314.28 95.3141 1310.42 89.7151C1306.65 84.0144 1301.2 79.8406 1294.08 77.1938C1287.05 74.4452 1278.55 73.0709 1268.58 73.0709H1238.65V318H1153.75ZM1336.99 174.463L1415.17 318H1322.94L1246.59 174.463H1336.99ZM1423.77 318V5.27264H1559.37C1583.19 5.27264 1603.19 8.47932 1619.38 14.8927C1635.67 21.306 1647.94 30.3662 1656.18 42.0731C1664.53 53.78 1668.7 67.5738 1668.7 83.4545C1668.7 94.9578 1666.16 105.443 1661.07 114.91C1656.08 124.378 1649.06 132.318 1640 138.731C1630.93 145.043 1620.35 149.42 1608.23 151.864V154.918C1621.67 155.427 1633.89 158.837 1644.88 165.148C1655.88 171.358 1664.63 179.96 1671.15 190.954C1677.66 201.847 1680.92 214.674 1680.92 229.435C1680.92 246.537 1676.44 261.756 1667.48 275.092C1658.62 288.427 1646 298.913 1629.61 306.548C1613.22 314.182 1593.68 318 1570.98 318H1423.77ZM1508.67 250.202H1548.38C1562.63 250.202 1573.32 247.555 1580.44 242.261C1587.57 236.866 1591.13 228.926 1591.13 218.44C1591.13 211.111 1589.45 204.901 1586.09 199.811C1582.73 194.721 1577.95 190.853 1571.74 188.206C1565.63 185.559 1558.25 184.236 1549.6 184.236H1508.67V250.202ZM1508.67 131.707H1543.49C1550.92 131.707 1557.49 130.537 1563.19 128.195C1568.89 125.854 1573.32 122.494 1576.47 118.117C1579.73 113.638 1581.36 108.192 1581.36 101.778C1581.36 92.1074 1577.9 84.7269 1570.98 79.637C1564.05 74.4452 1555.3 71.8493 1544.71 71.8493H1508.67V131.707ZM1778.7 5.27264V318H1693.8V5.27264H1778.7Z" stroke="white" stroke-opacity="0.35" stroke-width="2" mask="url(#path-1-outside-1_1052_2192)"/>
</svg>
