<svg width="current" height="current" viewBox="0 0 24 24" fill="none" xmlns="http://www.w3.org/2000/svg">
<path d="M22.7519 13.7521C22.4399 11.6641 20.6639 10.1761 18.6479 10.0801C19.1519 8.20807 20.3759 7.46411 21.8639 7.03211C22.0079 6.98414 21.9839 6.84008 21.9839 6.84008L21.7439 5.35212C21.7439 5.35212 21.72 5.23212 21.5279 5.2561C16.3919 5.83212 12.9119 9.7441 13.5599 14.4961C14.1598 17.7841 16.7277 19.0561 19.1039 18.7201C21.4799 18.3361 23.1119 16.1281 22.7519 13.7521L22.7519 13.7521ZM6.35995 10.0801C6.83995 8.20807 8.11199 7.46411 9.57595 7.03211C9.71993 6.98414 9.69595 6.84008 9.69595 6.84008L9.47993 5.35212C9.47993 5.35212 9.45594 5.23212 9.26391 5.2561C4.12791 5.80806 0.671908 9.7201 1.27191 14.4721C1.89589 17.7841 4.48791 19.0561 6.83991 18.7201C9.21591 18.3361 10.8479 16.1281 10.4639 13.7521C10.1519 11.6401 8.39991 10.1521 6.35991 10.0801L6.35995 10.0801Z" fill="currentColor"/>
</svg>
