<svg width="current" height="current" viewBox="0 0 25 25" fill="none" xmlns="http://www.w3.org/2000/svg">
<path fill-rule="evenodd" clip-rule="evenodd" d="M17.0543 12.4801C17.0938 14.9158 15.3077 16.9259 13.0632 16.9716C10.8182 16.9268 9.03117 14.9165 9.07071 12.4801C9.03116 10.0444 10.8173 8.0343 13.0617 7.98865C15.3068 8.03343 17.0938 10.0438 17.0543 12.4801Z" stroke="currentColor" stroke-width="2" stroke-linecap="round" stroke-linejoin="round"/>
<path d="M22.722 16.5257C21.8042 18.7141 20.1117 20.5473 17.9229 21.7236C15.7801 22.867 13.2673 23.2598 10.8396 22.8307C8.39077 22.3854 6.1877 21.1565 4.61412 19.3579C1.30049 15.5539 1.11956 10.1663 4.17152 6.17788C5.62032 4.2835 7.73501 2.9175 10.1515 2.31507C12.5395 1.73154 15.0737 1.96364 17.2929 2.96912C19.5555 4.00333 21.3683 5.72607 22.4296 7.85052L22.5056 8.00053C23.6589 10.4442 22.7834 14.6011 19.9953 14.6011C18.4564 14.5691 17.2362 13.3856 17.2686 11.9563" stroke="currentColor" stroke-width="2" stroke-linecap="round" stroke-linejoin="round"/>
</svg>
