<svg width="current" height="current" viewBox="0 0 24 24" fill="none" xmlns="http://www.w3.org/2000/svg">
<path d="M21 12H9M21 6H9M21 18H9" stroke="currentColor" stroke-width="2" stroke-linecap="round" stroke-linejoin="round"/>
<path d="M5.51855 3.05078V8H4.21289V4.25391H4.18555L3.0918 4.91016V3.7959L4.31543 3.05078H5.51855Z" fill="currentColor"/>
<path d="M2.64404 14V13.0635L4.48291 11.5186C4.85889 11.1973 5.09131 10.9648 5.09131 10.6094C5.09131 10.2266 4.81787 9.9873 4.43506 9.9873C4.05225 9.9873 3.79248 10.2266 3.79248 10.6504H2.55518C2.55518 9.61816 3.30029 8.98242 4.43506 8.98242C5.604 8.98242 6.35596 9.58398 6.35596 10.5C6.35596 11.0742 6.06885 11.5596 4.95459 12.4961L4.45557 12.9268V12.9541H6.41064V14H2.64404Z" fill="currentColor"/>
<path d="M4.46582 20.0684C3.30371 20.0684 2.47656 19.4189 2.46973 18.5098H3.78223C3.78906 18.8037 4.07617 19.0156 4.47266 19.0156C4.8623 19.0156 5.13574 18.79 5.13574 18.4756C5.13574 18.1611 4.82812 17.9355 4.37012 17.9355H3.87109V17.0332H4.37012C4.78711 17.0332 5.07422 16.8145 5.06738 16.5C5.07422 16.1992 4.82812 15.9873 4.47949 15.9873C4.09668 15.9873 3.82324 16.2061 3.81641 16.5137H2.57227C2.5791 15.6182 3.37207 14.9824 4.47949 14.9824C5.56641 14.9824 6.3252 15.5908 6.3252 16.418C6.3252 16.9717 5.90137 17.3545 5.32031 17.416V17.457C6.10645 17.5459 6.50977 17.9766 6.50977 18.585C6.50977 19.4531 5.66895 20.0684 4.46582 20.0684Z" fill="currentColor"/>
</svg>
