<svg width="16" height="16" viewBox="0 0 16 16" fill="none" xmlns="http://www.w3.org/2000/svg">
<g clip-path="url(#clip0_1005_2400)">
<g clip-path="url(#clip1_1005_2400)">
<path fill-rule="evenodd" clip-rule="evenodd" d="M7.92248 4.83348C7.37717 4.8333 7.00507 4.83318 6.68596 4.91868C5.82323 5.14985 5.14936 5.82372 4.91819 6.68645C4.83269 7.00556 4.83281 7.37766 4.83299 7.92296V8.07736C4.83281 8.62267 4.83269 8.99477 4.91819 9.31388C5.14936 10.1766 5.82323 10.8505 6.68596 11.0816C7.00507 11.1671 7.37717 11.167 7.92248 11.1668H8.07687C8.62218 11.167 8.99428 11.1671 9.31339 11.0816C10.1761 10.8505 10.85 10.1766 11.0812 9.31388C11.1667 8.99477 11.1665 8.62267 11.1664 8.07736V7.92296C11.1665 7.37766 11.1667 7.00556 11.0812 6.68645C10.85 5.82372 10.1761 5.14985 9.31339 4.91868C8.99428 4.83318 8.62218 4.8333 8.07687 4.83348H7.92248ZM6.94478 5.88461C7.1195 5.83779 7.3475 5.8335 7.99967 5.8335C8.65185 5.8335 8.87985 5.83779 9.05457 5.88461C9.57221 6.02331 9.97653 6.42763 10.1152 6.94527C10.162 7.11999 10.1663 7.34799 10.1663 8.00016C10.1663 8.65234 10.162 8.88034 10.1152 9.05506C9.97653 9.5727 9.57221 9.97702 9.05457 10.1157C8.87985 10.1625 8.65185 10.1668 7.99967 10.1668C7.3475 10.1668 7.1195 10.1625 6.94478 10.1157C6.42714 9.97702 6.02282 9.5727 5.88412 9.05506C5.8373 8.88034 5.83301 8.65234 5.83301 8.00016C5.83301 7.34799 5.8373 7.11999 5.88412 6.94527C6.02282 6.42763 6.42714 6.02331 6.94478 5.88461Z" fill="white"/>
<path fill-rule="evenodd" clip-rule="evenodd" d="M7.99967 0.833496C4.04163 0.833496 0.833008 4.04212 0.833008 8.00016C0.833008 11.9582 4.04163 15.1668 7.99967 15.1668C11.9577 15.1668 15.1663 11.9582 15.1663 8.00016C15.1663 4.04212 11.9577 0.833496 7.99967 0.833496ZM1.83301 8.00016C1.83301 4.59441 4.59392 1.8335 7.99967 1.8335C11.4054 1.8335 14.1663 4.59441 14.1663 8.00016C14.1663 11.4059 11.4054 14.1668 7.99967 14.1668C4.59392 14.1668 1.83301 11.4059 1.83301 8.00016Z" fill="white"/>
</g>
</g>
<defs>
<clipPath id="clip0_1005_2400">
<rect width="16" height="16" fill="white"/>
</clipPath>
<clipPath id="clip1_1005_2400">
<rect width="16" height="16" fill="white"/>
</clipPath>
</defs>
</svg>
