<svg width="current" height="current" viewBox="0 0 148 43" fill="none" xmlns="http://www.w3.org/2000/svg">
<path d="M22.668 17.8828C22.5977 17.2109 22.3047 16.6875 21.7891 16.3125C21.2812 15.9375 20.5977 15.75 19.7383 15.75C19.1523 15.75 18.6484 15.8359 18.2266 16.0078C17.8125 16.1719 17.4961 16.4023 17.2773 16.6992C17.0586 16.9961 16.9492 17.332 16.9492 17.707C16.9492 18.2695 17.1914 18.7148 17.6758 19.043C18.168 19.3633 18.832 19.6172 19.668 19.8047L21.1914 20.1797C22.7617 20.5391 24 21.125 24.9062 21.9375C25.8125 22.7422 26.2695 23.8125 26.2773 25.1484C26.2773 26.1797 26.0156 27.0781 25.4922 27.8438C24.9688 28.6094 24.2148 29.1992 23.2305 29.6133C22.2461 30.0273 21.0742 30.2344 19.7148 30.2344C18.3398 30.2422 17.1484 30.0352 16.1406 29.6133C15.1328 29.1914 14.3477 28.5664 13.7852 27.7383C13.2227 26.9102 12.9258 25.8984 12.8945 24.7031H16.3164C16.3711 25.5391 16.6992 26.1797 17.3008 26.625C17.9102 27.0625 18.6992 27.2812 19.668 27.2812C20.2773 27.2812 20.8125 27.1914 21.2734 27.0117C21.7344 26.832 22.0898 26.582 22.3398 26.2617C22.5898 25.9414 22.7148 25.5703 22.7148 25.1484C22.7148 24.6016 22.4766 24.168 22 23.8477C21.5312 23.5195 20.8008 23.2344 19.8086 22.9922L17.957 22.5469C14.8789 21.7891 13.3398 20.25 13.3398 17.9297C13.3398 16.9219 13.6133 16.0312 14.1602 15.2578C14.7148 14.4766 15.4766 13.8711 16.4453 13.4414C17.4219 13.0117 18.5273 12.7969 19.7617 12.7969C20.9961 12.7969 22.0859 13.0117 23.0312 13.4414C23.9766 13.8711 24.7109 14.4727 25.2344 15.2461C25.7578 16.0117 26.0273 16.8906 26.043 17.8828H22.668ZM32.0898 30H28.5742V13.0312H32.0898V30ZM34.9492 13.0312H38.4648V27.0938H45.7773V30H34.9492V13.0312ZM53.3242 25.9688H53.4883L57.6367 13.0312H61.5273L55.668 30H51.1445L45.2617 13.0312H49.1992L53.3242 25.9688ZM63.4492 13.0312H74.8398V15.9375H66.9648V20.0625H74.2539V22.9688H66.9648V27.0938H74.8633V30H63.4492V13.0312ZM77.582 13.0312H84.2383C85.5039 13.0312 86.5938 13.2578 87.5078 13.7109C88.4219 14.1641 89.1172 14.8086 89.5938 15.6445C90.0703 16.4727 90.3086 17.4453 90.3086 18.5625C90.3086 19.7188 90.0508 20.7109 89.5352 21.5391C89.0195 22.3672 88.2773 22.9883 87.3086 23.4023L90.918 30H87.0273L83.7812 23.9766H81.0977V30H77.582V13.0312ZM83.582 21.1172C85.6602 21.1172 86.6914 20.2656 86.6758 18.5625C86.6836 17.7031 86.4297 17.0508 85.9141 16.6055C85.3984 16.1523 84.6211 15.9219 83.582 15.9141H81.0977V21.1172H83.582ZM92.7461 13.0312H99.4961C100.715 13.0312 101.746 13.2148 102.59 13.582C103.434 13.9492 104.066 14.4609 104.488 15.1172C104.918 15.7734 105.129 16.5312 105.121 17.3906C105.129 18.3516 104.852 19.1484 104.289 19.7812C103.727 20.4062 102.988 20.8203 102.074 21.0234V21.1875C102.723 21.2188 103.332 21.4062 103.902 21.75C104.473 22.0938 104.93 22.5742 105.273 23.1914C105.625 23.8008 105.801 24.5078 105.801 25.3125C105.793 26.2266 105.562 27.0352 105.109 27.7383C104.664 28.4414 104 28.9961 103.117 29.4023C102.242 29.8008 101.184 30 99.9414 30H92.7461V13.0312ZM99.2383 27.0938C100.223 27.1016 100.953 26.918 101.43 26.543C101.914 26.168 102.152 25.6484 102.145 24.9844C102.145 24.5078 102.031 24.0859 101.805 23.7188C101.578 23.3516 101.25 23.0664 100.82 22.8633C100.398 22.6523 99.9023 22.5469 99.332 22.5469H96.2617V27.0938H99.2383ZM98.9805 20.1328C99.4727 20.1406 99.9141 20.0547 100.305 19.875C100.703 19.6953 101.012 19.4414 101.23 19.1133C101.449 18.7852 101.559 18.3984 101.559 17.9531C101.566 17.3281 101.348 16.8281 100.902 16.4531C100.457 16.0781 99.8398 15.8906 99.0508 15.8906H96.2617V20.1328H98.9805ZM111.543 30H108.027V13.0312H111.543V30Z" fill="currentColor"/>
<path fill-rule="evenodd" clip-rule="evenodd" d="M125.58 6C125.129 6 124.758 6.35537 124.758 6.78687V10.1199C124.758 10.2071 124.713 10.2881 124.637 10.3371C124.562 10.386 124.467 10.396 124.382 10.3637L121.606 9.26335C121.502 9.22202 121.393 9.2034 121.286 9.20445C120.965 9.20761 120.66 9.39063 120.531 9.68958L119.062 13.0819C118.889 13.4805 119.09 13.9457 119.507 14.1102L122.874 15.438C122.951 15.4686 123.009 15.5307 123.033 15.6076C123.056 15.6844 123.041 15.7661 122.993 15.8314L120.789 18.4999C120.514 18.8422 120.582 19.3408 120.94 19.6034L123.986 21.839C124.344 22.1016 124.865 22.0358 125.139 21.6935L127.283 19.0982C127.335 19.0334 127.415 18.9958 127.5 18.9958C127.585 18.9958 127.665 19.0334 127.717 19.0982L129.861 21.6935C130.135 22.0357 130.656 22.1016 131.014 21.839L134.06 19.6034C134.418 19.3407 134.486 18.8423 134.211 18.4999L132.007 15.8314C131.959 15.7662 131.944 15.6844 131.967 15.6076C131.991 15.5307 132.049 15.4686 132.126 15.438L135.493 14.1102C135.91 13.9457 136.111 13.4807 135.938 13.0819L134.469 9.68958C134.34 9.39064 134.034 9.20763 133.714 9.20445C133.607 9.2034 133.498 9.22214 133.394 9.26335L130.618 10.3637C130.533 10.396 130.438 10.386 130.363 10.3371C130.287 10.2881 130.242 10.2071 130.242 10.1199V6.78687C130.242 6.35537 129.87 6 129.419 6H125.58Z" fill="currentColor"/>
</svg>
