<svg width="current" height="current" viewBox="0 0 24 24" fill="none" xmlns="http://www.w3.org/2000/svg">
<path fill-rule="evenodd" clip-rule="evenodd" d="M22 7.71429V16.2857C22 19.4416 19.4416 22 16.2857 22H7.71429C4.55837 22 2 19.4416 2 16.2857V7.71429C2 4.55837 4.55837 2 7.71429 2H16.2857C19.4416 2 22 4.55837 22 7.71429Z" stroke="currentColor" stroke-width="2" stroke-linecap="round" stroke-linejoin="round"/>
<path fill-rule="evenodd" clip-rule="evenodd" d="M11.5009 11.2071L14.6694 13.7114C14.8768 13.8659 15 14.1162 15 14.383C15 14.6497 14.8768 14.9 14.6694 15.0545L11.5009 17.7931C11.2334 18.012 10.8736 18.0612 10.5616 17.9216C10.2495 17.7819 10.0344 17.4755 10 17.1216V11.8752C10.0355 11.5218 10.251 11.2165 10.5629 11.0777C10.8747 10.9389 11.2339 10.9885 11.5009 11.2071V11.2071Z" stroke="currentColor" stroke-width="2" stroke-linecap="round" stroke-linejoin="round"/>
<path d="M22 8.46429C22.4142 8.46429 22.75 8.1285 22.75 7.71429C22.75 7.30007 22.4142 6.96429 22 6.96429V8.46429ZM12 6.96429C11.5858 6.96429 11.25 7.30007 11.25 7.71429C11.25 8.1285 11.5858 8.46429 12 8.46429V6.96429ZM2 6.96429C1.58579 6.96429 1.25 7.30007 1.25 7.71429C1.25 8.1285 1.58579 8.46429 2 8.46429V6.96429ZM12 8.46429C12.4142 8.46429 12.75 8.1285 12.75 7.71429C12.75 7.30007 12.4142 6.96429 12 6.96429V8.46429ZM11.25 7.71429C11.25 8.1285 11.5858 8.46429 12 8.46429C12.4142 8.46429 12.75 8.1285 12.75 7.71429H11.25ZM12.75 2C12.75 1.58579 12.4142 1.25 12 1.25C11.5858 1.25 11.25 1.58579 11.25 2H12.75ZM22 6.96429H12V8.46429H22V6.96429ZM2 8.46429H12V6.96429H2V8.46429ZM12.75 7.71429V2H11.25V7.71429H12.75Z" fill="currentColor"/>
</svg>
