<svg width="current" height="current" viewBox="0 0 17 20" fill="none" xmlns="http://www.w3.org/2000/svg">
<path d="M6.15026 15.9144C6.41365 15.8314 6.55991 15.5507 6.47695 15.2873C6.39399 15.0239 6.11322 14.8776 5.84983 14.9606L6.15026 15.9144ZM1.05202 12.1539L0.568407 12.0269L0.31447 12.9941L0.79808 13.1211L1.05202 12.1539ZM11.5 18.9375V19.4375H12.5V18.9375H11.5ZM11.5 11.9375L11.4466 11.4404C11.2549 11.461 11.0921 11.59 11.0282 11.7719C10.9644 11.9539 11.0109 12.1563 11.1477 12.2922L11.5 11.9375ZM16 6.715H16.5L16.5 6.71339L16 6.715ZM14.8337 3.90625L14.3676 3.72524C14.2959 3.90974 14.3398 4.11914 14.4796 4.2593L14.8337 3.90625ZM14.7637 1.08262L15.2202 0.878738C15.1599 0.743816 15.0431 0.642456 14.901 0.601862L14.7637 1.08262ZM11.7222 2.19125L11.596 2.67508C11.7316 2.71042 11.8758 2.68726 11.9934 2.61125L11.7222 2.19125ZM6.27791 2.19125L6.0067 2.6113C6.12436 2.68727 6.2685 2.71041 6.40403 2.67508L6.27791 2.19125ZM3.23641 1.08262L3.09893 0.601897C2.9569 0.642514 2.84011 0.743856 2.77987 0.878738L3.23641 1.08262ZM3.16641 3.90625L3.52044 4.25933C3.66022 4.11917 3.70416 3.90975 3.6325 3.72524L3.16641 3.90625ZM2.00004 6.73775H2.50004L2.50003 6.73647L2.00004 6.73775ZM6.50005 11.9375L6.853 12.2917C6.98871 12.1564 7.0352 11.9555 6.9727 11.7744C6.91019 11.5933 6.7497 11.4638 6.55946 11.441L6.50005 11.9375ZM6.00005 14.0375H6.50005C6.50005 14.0253 6.4996 14.0131 6.49871 14.0009L6.00005 14.0375ZM5.50005 18.9375V19.4375H6.50005V18.9375H5.50005ZM5.84983 14.9606C4.97896 15.2349 4.39869 15.2129 3.99255 15.0789C3.58787 14.9453 3.2871 14.6781 3.01533 14.3238C2.87825 14.1451 2.75354 13.9509 2.62643 13.7452C2.50376 13.5466 2.37165 13.3249 2.23718 13.1266C1.97405 12.7386 1.61532 12.3018 1.05202 12.1539L0.79808 13.1211C0.984649 13.1701 1.16645 13.3294 1.40952 13.6878C1.52813 13.8628 1.64054 14.052 1.77566 14.2707C1.90634 14.4823 2.05272 14.7119 2.2219 14.9325C2.56263 15.3766 3.015 15.8093 3.67915 16.0285C4.34181 16.2472 5.14602 16.2307 6.15026 15.9144L5.84983 14.9606ZM12.5 13.95C12.5 13.1362 12.5521 12.2777 11.8524 11.5828L11.1477 12.2922C11.4963 12.6385 11.5 13.0138 11.5 13.95H12.5ZM11.5535 12.4346C12.8015 12.3005 14.0637 12.0033 15.0062 11.1278C15.9641 10.2378 16.5 8.83996 16.5 6.715H15.5C15.5 8.67979 15.0071 9.76193 14.3255 10.3952C13.6285 11.0428 12.6407 11.312 11.4466 11.4404L11.5535 12.4346ZM16.5 6.71339C16.4962 5.5282 16.0246 4.39246 15.1877 3.5532L14.4796 4.2593C15.1303 4.91189 15.4971 5.79503 15.5 6.71661L16.5 6.71339ZM15.2997 4.08726C15.4992 3.57373 15.5948 3.02576 15.5812 2.47504L14.5815 2.49982C14.5919 2.91842 14.5192 3.33491 14.3676 3.72524L15.2997 4.08726ZM15.5812 2.47504C15.5675 1.92431 15.4448 1.38175 15.2202 0.878738L14.3071 1.28651C14.4779 1.66884 14.5711 2.08123 14.5815 2.49982L15.5812 2.47504ZM14.7637 1.08262C14.901 0.601862 14.9005 0.601728 14.9001 0.601593C14.8999 0.601547 14.8994 0.601412 14.8991 0.60132C14.8985 0.601136 14.8978 0.60095 14.8971 0.600761C14.8957 0.600383 14.8943 0.599994 14.8928 0.599596C14.8899 0.598799 14.8867 0.597964 14.8833 0.597099C14.8764 0.595367 14.8686 0.593513 14.8598 0.591596C14.8423 0.587761 14.8211 0.583682 14.796 0.579829C14.7459 0.572117 14.6808 0.565359 14.6003 0.56321C14.4391 0.558907 14.2184 0.573145 13.9345 0.6338C13.3674 0.754951 12.551 1.06062 11.4509 1.77125L11.9934 2.61125C13.016 1.95075 13.7204 1.70211 14.1434 1.61173C14.3546 1.56662 14.4962 1.56079 14.5736 1.56285C14.6124 1.56389 14.6357 1.56693 14.6441 1.56822C14.6483 1.56886 14.6488 1.56909 14.6458 1.56843C14.6443 1.5681 14.6419 1.56755 14.6387 1.56673C14.637 1.56632 14.6352 1.56584 14.6331 1.56528C14.6321 1.565 14.631 1.56471 14.6299 1.56439C14.6293 1.56424 14.6287 1.56407 14.6281 1.5639C14.6278 1.56382 14.6274 1.56369 14.6272 1.56365C14.6268 1.56352 14.6263 1.56339 14.7637 1.08262ZM11.8483 1.70742C9.98065 1.2206 8.01942 1.2206 6.1518 1.70742L6.40403 2.67508C8.10626 2.23138 9.89381 2.23138 11.596 2.67508L11.8483 1.70742ZM6.54912 1.77119C5.44856 1.06061 4.6322 0.754955 4.06529 0.633805C3.78146 0.57315 3.56079 0.558906 3.39966 0.563211C3.31921 0.56536 3.25412 0.57212 3.20396 0.579838C3.17891 0.583693 3.15765 0.587776 3.14014 0.591615C3.13139 0.593534 3.12358 0.595391 3.11671 0.597125C3.11328 0.597992 3.11008 0.598828 3.10712 0.599626C3.10564 0.600025 3.10421 0.600414 3.10285 0.600793C3.10216 0.600982 3.1015 0.601169 3.10084 0.601353C3.10052 0.601445 3.10004 0.601581 3.09988 0.601627C3.0994 0.601762 3.09893 0.601897 3.23641 1.08262C3.37389 1.56335 3.37343 1.56348 3.37297 1.56362C3.37282 1.56366 3.37236 1.56379 3.37206 1.56387C3.37147 1.56404 3.37088 1.5642 3.37031 1.56436C3.36917 1.56468 3.36809 1.56497 3.36705 1.56525C3.36499 1.56581 3.36314 1.56629 3.3615 1.5667C3.35824 1.56753 3.35584 1.56808 3.35433 1.56841C3.35131 1.56907 3.35185 1.56885 3.35603 1.56821C3.36437 1.56693 3.38758 1.56389 3.42636 1.56285C3.5037 1.56079 3.64522 1.56661 3.85631 1.61172C4.27924 1.70211 4.98364 1.95076 6.0067 2.6113L6.54912 1.77119ZM2.77987 0.878738C2.55523 1.38175 2.43254 1.92431 2.41888 2.47504L3.41857 2.49982C3.42895 2.08123 3.52221 1.66884 3.69295 1.28651L2.77987 0.878738ZM2.41888 2.47504C2.40523 3.02576 2.50089 3.57373 2.70033 4.08726L3.6325 3.72524C3.48091 3.33491 3.4082 2.91842 3.41857 2.49982L2.41888 2.47504ZM2.81238 3.55317C2.39487 3.97181 2.06405 4.46869 1.83885 5.01537L2.76348 5.39625C2.93858 4.97118 3.19581 4.58483 3.52044 4.25933L2.81238 3.55317ZM1.83885 5.01537C1.61366 5.56205 1.49852 6.14779 1.50004 6.73903L2.50003 6.73647C2.49886 6.27675 2.58838 5.82132 2.76348 5.39625L1.83885 5.01537ZM1.50004 6.73775C1.50004 8.84924 2.03679 10.2342 2.99529 11.1181C3.93636 11.9859 5.19677 12.2851 6.44064 12.434L6.55946 11.441C5.36121 11.2976 4.37161 11.027 3.6732 10.383C2.99222 9.75501 2.50004 8.68626 2.50004 6.73775H1.50004ZM6.1471 11.5833C5.79111 11.9381 5.62196 12.3936 5.54437 12.824C5.46672 13.2547 5.4738 13.6985 5.50139 14.0741L6.49871 14.0009C6.47379 13.6617 6.47232 13.3131 6.52851 13.0014C6.58476 12.6893 6.69186 12.4522 6.853 12.2917L6.1471 11.5833ZM5.50005 14.0375V18.9375H6.50005V14.0375H5.50005ZM12.5 18.9375V13.95H11.5V18.9375H12.5Z" fill="currentColor"/>
</svg>
