<svg width="current" height="current" viewBox="0 0 26 26" fill="none" xmlns="http://www.w3.org/2000/svg">
<path fill-rule="evenodd" clip-rule="evenodd" d="M10.064 0.14444C9.37413 0.14444 8.80595 0.715493 8.80595 1.40889V6.76486C8.80595 6.90505 8.73705 7.03526 8.62173 7.11391C8.50626 7.19255 8.36063 7.20852 8.23103 7.15663L3.98515 5.38846C3.82584 5.32204 3.65959 5.29212 3.49617 5.29382C3.00604 5.2989 2.53934 5.59299 2.34126 6.0734L0.0947561 11.5247C-0.169207 12.1653 0.137627 12.9128 0.775445 13.177L5.92503 15.3108C6.04316 15.3599 6.13189 15.4598 6.16746 15.5833C6.20303 15.7067 6.18057 15.838 6.10681 15.943L2.73573 20.2311C2.31583 20.7811 2.42029 21.5823 2.96749 22.0043L7.62543 25.5968C8.1726 26.0189 8.96981 25.9131 9.38965 25.363L12.6675 21.1926C12.7471 21.0883 12.8693 21.0279 13 21.0279C13.1307 21.0279 13.2529 21.0883 13.3324 21.1926L16.6103 25.363C17.0302 25.913 17.8272 26.0189 18.3746 25.5968L23.0325 22.0043C23.5797 21.5822 23.6842 20.7812 23.2642 20.2311L19.8932 15.943C19.8194 15.8382 19.7971 15.7067 19.8325 15.5833C19.8681 15.4598 19.9568 15.3599 20.0749 15.3108L25.2245 13.177C25.8624 12.9128 26.1692 12.1655 25.9052 11.5247L23.6585 6.0734C23.4604 5.59302 22.9937 5.29893 22.5036 5.29382C22.3402 5.29213 22.174 5.32223 22.0147 5.38846L17.7687 7.15663C17.6392 7.20859 17.4935 7.19255 17.378 7.11391C17.2621 7.03526 17.1932 6.90505 17.1932 6.76486V1.40889C17.1932 0.715493 16.6251 0.14444 15.9352 0.14444H10.064Z" fill="currentColor"/>
</svg>
