<svg width="current" height="current" viewBox="0 0 24 24" fill="none" xmlns="http://www.w3.org/2000/svg">
<path d="M12.8462 6.35897C12.8462 5.89166 12.4673 5.51282 12 5.51282C11.5327 5.51282 11.1538 5.89166 11.1538 6.35897V10.4413L8.36739 7.65483C8.03695 7.32439 7.50119 7.32439 7.17075 7.65483C6.8403 7.98528 6.8403 8.52103 7.17075 8.85148L9.47312 11.1538H6.35897C5.89166 11.1538 5.51282 11.5327 5.51282 12C5.51282 12.4673 5.89166 12.8462 6.35897 12.8462H9.95721L7.17091 15.6324C6.84047 15.9629 6.84047 16.4986 7.17091 16.8291C7.50135 17.1595 8.03711 17.1595 8.36755 16.8291L11.1538 14.0428V17.641C11.1538 18.1083 11.5327 18.4872 12 18.4872C12.4673 18.4872 12.8462 18.1083 12.8462 17.641V14.5269L15.1484 16.8291C15.4788 17.1595 16.0146 17.1595 16.345 16.8291C16.6754 16.4986 16.6754 15.9629 16.345 15.6324L13.5587 12.8462H17.641C18.1083 12.8462 18.4872 12.4673 18.4872 12C18.4872 11.5327 18.1083 11.1538 17.641 11.1538H14.0428L16.3452 8.85148C16.6756 8.52103 16.6756 7.98528 16.3452 7.65483C16.0147 7.32439 15.479 7.32439 15.1485 7.65483L12.8462 9.95721V6.35897Z" fill="currentColor"/>
<path fill-rule="evenodd" clip-rule="evenodd" d="M17.0358 1.13959C15.7472 0.999984 14.123 0.999991 12.0511 1H11.9489C9.87696 0.999991 8.25279 0.999984 6.96423 1.13959C5.64926 1.28206 4.58381 1.57801 3.67411 2.23894C3.12338 2.63907 2.63907 3.12338 2.23894 3.67411C1.57801 4.58381 1.28206 5.64926 1.13959 6.96423C0.999984 8.25279 0.999991 9.87696 1 11.9489V12.0511C0.999991 14.123 0.999984 15.7472 1.13959 17.0358C1.28206 18.3507 1.57801 19.4162 2.23894 20.3259C2.63907 20.8766 3.12338 21.3609 3.67411 21.7611C4.58381 22.422 5.64927 22.7179 6.96423 22.8604C8.25277 23 9.8769 23 11.9488 23H12.0511C14.123 23 15.7472 23 17.0358 22.8604C18.3507 22.7179 19.4162 22.422 20.3259 21.7611C20.8766 21.3609 21.3609 20.8766 21.7611 20.3259C22.422 19.4162 22.7179 18.3507 22.8604 17.0358C23 15.7472 23 14.1231 23 12.0512V11.9489C23 9.87699 23 8.25277 22.8604 6.96423C22.7179 5.64927 22.422 4.58381 21.7611 3.67411C21.3609 3.12338 20.8766 2.63907 20.3259 2.23894C19.4162 1.57801 18.3507 1.28206 17.0358 1.13959ZM4.66883 3.60805C5.24196 3.19164 5.97554 2.94892 7.14651 2.82205C8.33333 2.69347 9.86592 2.69231 12 2.69231C14.1341 2.69231 15.6667 2.69347 16.8535 2.82205C18.0245 2.94892 18.758 3.19164 19.3312 3.60805C19.7382 3.90379 20.0962 4.26177 20.392 4.66883C20.8084 5.24196 21.0511 5.97554 21.1779 7.14651C21.3065 8.33333 21.3077 9.86592 21.3077 12C21.3077 14.1341 21.3065 15.6667 21.1779 16.8535C21.0511 18.0245 20.8084 18.758 20.392 19.3312C20.0962 19.7382 19.7382 20.0962 19.3312 20.392C18.758 20.8084 18.0245 21.0511 16.8535 21.1779C15.6667 21.3065 14.1341 21.3077 12 21.3077C9.86592 21.3077 8.33333 21.3065 7.14651 21.1779C5.97554 21.0511 5.24196 20.8084 4.66883 20.392C4.26177 20.0962 3.90379 19.7382 3.60805 19.3312C3.19164 18.758 2.94892 18.0245 2.82205 16.8535C2.69347 15.6667 2.69231 14.1341 2.69231 12C2.69231 9.86592 2.69347 8.33333 2.82205 7.14651C2.94892 5.97554 3.19164 5.24196 3.60805 4.66883C3.90379 4.26177 4.26177 3.90379 4.66883 3.60805Z" fill="currentColor"/>
</svg>
